<svg width="499" height="240" viewBox="0 0 499 240" fill="none" xmlns="http://www.w3.org/2000/svg">
<path d="M144.04 37.48V33.88H140.4V29.84H144.44V33.48H154.92V26.6H144.04V23H140.4V15.4H144.04V11.76H155.32V15.4H159V19.4H154.92V15.8H144.44V22.64H155.32V26.2H159V33.88H155.32V37.48H144.04ZM169.476 37.48V33.88H165.876V23H162.236V19H165.876V11.76H169.876V19H180.836V23H169.876V33.48H180.436V29.84H184.476V33.88H180.836V37.48H169.476ZM191.735 37.48V33.88H188.095V22.64H191.735V19H203.015V22.64H206.695V33.48H210.335V37.48H206.295V33.88H203.015V37.48H191.735ZM192.135 33.48H202.615V23H192.135V33.48ZM215.166 37.48V22.64H218.806V19H230.086V22.64H233.766V26.6H229.686V23H219.206V37.48H215.166ZM245.843 37.48V33.88H242.243V23H238.603V19H242.243V11.76H246.243V19H257.203V23H246.243V33.48H256.803V29.84H260.843V33.88H257.203V37.48H245.843ZM280.921 37.48V23H277.321V19.4H273.681V11.76H277.721V19H281.321V22.64H284.601V19H288.201V11.76H292.281V19.4H288.601V23H285.001V37.48H280.921ZM297.946 37.48V33.88H294.306V22.64H297.946V19H309.226V22.64H312.906V33.88H309.226V37.48H297.946ZM298.346 33.48H308.826V23H298.346V33.48ZM321.384 37.48V33.88H317.744V19H321.784V33.48H332.264V19H336.344V33.88H332.664V37.48H321.384ZM340.791 37.48V22.64H344.431V19H355.711V22.64H359.391V26.6H355.311V23H344.831V37.48H340.791Z" fill="#626262"/>
<g filter="url(#filter0_d_10_7)">
<mask id="path-2-outside-1_10_7" maskUnits="userSpaceOnUse" x="166" y="60" width="166" height="71" fill="black">
<rect fill="white" x="166" y="60" width="166" height="71"/>
<path d="M170.76 126.152V81.8H179.496V73.16H188.136V64.424H197.928V73.16H206.568V81.8H215.4V126.152H205.608V108.776H180.456V126.152H170.76ZM180.456 99.08H205.608V82.76H196.968V74.12H189.096V82.76H180.456V99.08ZM227.01 126.152V73.16H235.746V64.424H262.818V73.16H271.65V100.04H262.818V108.776H258.594V116.552H267.234V126.152H257.634V117.512H248.802V108.776H236.706V126.152H227.01ZM236.706 99.08H261.858V74.12H236.706V99.08ZM300.636 126.152V74.12H292.956V82.76H283.26V73.16H291.996V64.424H319.068V73.16H327.9V82.76H318.108V74.12H310.428V126.152H300.636Z"/>
</mask>
<path d="M170.76 126.152V81.8H179.496V73.16H188.136V64.424H197.928V73.16H206.568V81.8H215.4V126.152H205.608V108.776H180.456V126.152H170.76ZM180.456 99.08H205.608V82.76H196.968V74.12H189.096V82.76H180.456V99.08ZM227.01 126.152V73.16H235.746V64.424H262.818V73.16H271.65V100.04H262.818V108.776H258.594V116.552H267.234V126.152H257.634V117.512H248.802V108.776H236.706V126.152H227.01ZM236.706 99.08H261.858V74.12H236.706V99.08ZM300.636 126.152V74.12H292.956V82.76H283.26V73.16H291.996V64.424H319.068V73.16H327.9V82.76H318.108V74.12H310.428V126.152H300.636Z" fill="url(#paint0_linear_10_7)"/>
<path d="M170.76 126.152H166.76V130.152H170.76V126.152ZM170.76 81.8V77.8H166.76V81.8H170.76ZM179.496 81.8V85.8H183.496V81.8H179.496ZM179.496 73.16V69.16H175.496V73.16H179.496ZM188.136 73.16V77.16H192.136V73.16H188.136ZM188.136 64.424V60.424H184.136V64.424H188.136ZM197.928 64.424H201.928V60.424H197.928V64.424ZM197.928 73.16H193.928V77.16H197.928V73.16ZM206.568 73.16H210.568V69.16H206.568V73.16ZM206.568 81.8H202.568V85.8H206.568V81.8ZM215.4 81.8H219.4V77.8H215.4V81.8ZM215.4 126.152V130.152H219.4V126.152H215.4ZM205.608 126.152H201.608V130.152H205.608V126.152ZM205.608 108.776H209.608V104.776H205.608V108.776ZM180.456 108.776V104.776H176.456V108.776H180.456ZM180.456 126.152V130.152H184.456V126.152H180.456ZM180.456 99.08H176.456V103.08H180.456V99.08ZM205.608 99.08V103.08H209.608V99.08H205.608ZM205.608 82.76H209.608V78.76H205.608V82.76ZM196.968 82.76H192.968V86.76H196.968V82.76ZM196.968 74.12H200.968V70.12H196.968V74.12ZM189.096 74.12V70.12H185.096V74.12H189.096ZM189.096 82.76V86.76H193.096V82.76H189.096ZM180.456 82.76V78.76H176.456V82.76H180.456ZM170.76 126.152H174.76V81.8H170.76H166.76V126.152H170.76ZM170.76 81.8V85.8H179.496V81.8V77.8H170.76V81.8ZM179.496 81.8H183.496V73.16H179.496H175.496V81.8H179.496ZM179.496 73.16V77.16H188.136V73.16V69.16H179.496V73.16ZM188.136 73.16H192.136V64.424H188.136H184.136V73.16H188.136ZM188.136 64.424V68.424H197.928V64.424V60.424H188.136V64.424ZM197.928 64.424H193.928V73.16H197.928H201.928V64.424H197.928ZM197.928 73.16V77.16H206.568V73.16V69.16H197.928V73.16ZM206.568 73.16H202.568V81.8H206.568H210.568V73.16H206.568ZM206.568 81.8V85.8H215.4V81.8V77.8H206.568V81.8ZM215.4 81.8H211.4V126.152H215.4H219.4V81.8H215.4ZM215.4 126.152V122.152H205.608V126.152V130.152H215.4V126.152ZM205.608 126.152H209.608V108.776H205.608H201.608V126.152H205.608ZM205.608 108.776V104.776H180.456V108.776V112.776H205.608V108.776ZM180.456 108.776H176.456V126.152H180.456H184.456V108.776H180.456ZM180.456 126.152V122.152H170.76V126.152V130.152H180.456V126.152ZM180.456 99.08V103.08H205.608V99.08V95.08H180.456V99.08ZM205.608 99.08H209.608V82.76H205.608H201.608V99.08H205.608ZM205.608 82.76V78.76H196.968V82.76V86.76H205.608V82.76ZM196.968 82.76H200.968V74.12H196.968H192.968V82.76H196.968ZM196.968 74.12V70.12H189.096V74.12V78.12H196.968V74.12ZM189.096 74.12H185.096V82.76H189.096H193.096V74.12H189.096ZM189.096 82.76V78.76H180.456V82.76V86.76H189.096V82.76ZM180.456 82.76H176.456V99.08H180.456H184.456V82.76H180.456ZM227.01 126.152H223.01V130.152H227.01V126.152ZM227.01 73.16V69.16H223.01V73.16H227.01ZM235.746 73.16V77.16H239.746V73.16H235.746ZM235.746 64.424V60.424H231.746V64.424H235.746ZM262.818 64.424H266.818V60.424H262.818V64.424ZM262.818 73.16H258.818V77.16H262.818V73.16ZM271.65 73.16H275.65V69.16H271.65V73.16ZM271.65 100.04V104.04H275.65V100.04H271.65ZM262.818 100.04V96.04H258.818V100.04H262.818ZM262.818 108.776V112.776H266.818V108.776H262.818ZM258.594 108.776V104.776H254.594V108.776H258.594ZM258.594 116.552H254.594V120.552H258.594V116.552ZM267.234 116.552H271.234V112.552H267.234V116.552ZM267.234 126.152V130.152H271.234V126.152H267.234ZM257.634 126.152H253.634V130.152H257.634V126.152ZM257.634 117.512H261.634V113.512H257.634V117.512ZM248.802 117.512H244.802V121.512H248.802V117.512ZM248.802 108.776H252.802V104.776H248.802V108.776ZM236.706 108.776V104.776H232.706V108.776H236.706ZM236.706 126.152V130.152H240.706V126.152H236.706ZM236.706 99.08H232.706V103.08H236.706V99.08ZM261.858 99.08V103.08H265.858V99.08H261.858ZM261.858 74.12H265.858V70.12H261.858V74.12ZM236.706 74.12V70.12H232.706V74.12H236.706ZM227.01 126.152H231.01V73.16H227.01H223.01V126.152H227.01ZM227.01 73.16V77.16H235.746V73.16V69.16H227.01V73.16ZM235.746 73.16H239.746V64.424H235.746H231.746V73.16H235.746ZM235.746 64.424V68.424H262.818V64.424V60.424H235.746V64.424ZM262.818 64.424H258.818V73.16H262.818H266.818V64.424H262.818ZM262.818 73.16V77.16H271.65V73.16V69.16H262.818V73.16ZM271.65 73.16H267.65V100.04H271.65H275.65V73.16H271.65ZM271.65 100.04V96.04H262.818V100.04V104.04H271.65V100.04ZM262.818 100.04H258.818V108.776H262.818H266.818V100.04H262.818ZM262.818 108.776V104.776H258.594V108.776V112.776H262.818V108.776ZM258.594 108.776H254.594V116.552H258.594H262.594V108.776H258.594ZM258.594 116.552V120.552H267.234V116.552V112.552H258.594V116.552ZM267.234 116.552H263.234V126.152H267.234H271.234V116.552H267.234ZM267.234 126.152V122.152H257.634V126.152V130.152H267.234V126.152ZM257.634 126.152H261.634V117.512H257.634H253.634V126.152H257.634ZM257.634 117.512V113.512H248.802V117.512V121.512H257.634V117.512ZM248.802 117.512H252.802V108.776H248.802H244.802V117.512H248.802ZM248.802 108.776V104.776H236.706V108.776V112.776H248.802V108.776ZM236.706 108.776H232.706V126.152H236.706H240.706V108.776H236.706ZM236.706 126.152V122.152H227.01V126.152V130.152H236.706V126.152ZM236.706 99.08V103.08H261.858V99.08V95.08H236.706V99.08ZM261.858 99.08H265.858V74.12H261.858H257.858V99.08H261.858ZM261.858 74.12V70.12H236.706V74.12V78.12H261.858V74.12ZM236.706 74.12H232.706V99.08H236.706H240.706V74.12H236.706ZM300.636 126.152H296.636V130.152H300.636V126.152ZM300.636 74.12H304.636V70.12H300.636V74.12ZM292.956 74.12V70.12H288.956V74.12H292.956ZM292.956 82.76V86.76H296.956V82.76H292.956ZM283.26 82.76H279.26V86.76H283.26V82.76ZM283.26 73.16V69.16H279.26V73.16H283.26ZM291.996 73.16V77.16H295.996V73.16H291.996ZM291.996 64.424V60.424H287.996V64.424H291.996ZM319.068 64.424H323.068V60.424H319.068V64.424ZM319.068 73.16H315.068V77.16H319.068V73.16ZM327.9 73.16H331.9V69.16H327.9V73.16ZM327.9 82.76V86.76H331.9V82.76H327.9ZM318.108 82.76H314.108V86.76H318.108V82.76ZM318.108 74.12H322.108V70.12H318.108V74.12ZM310.428 74.12V70.12H306.428V74.12H310.428ZM310.428 126.152V130.152H314.428V126.152H310.428ZM300.636 126.152H304.636V74.12H300.636H296.636V126.152H300.636ZM300.636 74.12V70.12H292.956V74.12V78.12H300.636V74.12ZM292.956 74.12H288.956V82.76H292.956H296.956V74.12H292.956ZM292.956 82.76V78.76H283.26V82.76V86.76H292.956V82.76ZM283.26 82.76H287.26V73.16H283.26H279.26V82.76H283.26ZM283.26 73.16V77.16H291.996V73.16V69.16H283.26V73.16ZM291.996 73.16H295.996V64.424H291.996H287.996V73.16H291.996ZM291.996 64.424V68.424H319.068V64.424V60.424H291.996V64.424ZM319.068 64.424H315.068V73.16H319.068H323.068V64.424H319.068ZM319.068 73.16V77.16H327.9V73.16V69.16H319.068V73.16ZM327.9 73.16H323.9V82.76H327.9H331.9V73.16H327.9ZM327.9 82.76V78.76H318.108V82.76V86.76H327.9V82.76ZM318.108 82.76H322.108V74.12H318.108H314.108V82.76H318.108ZM318.108 74.12V70.12H310.428V74.12V78.12H318.108V74.12ZM310.428 74.12H306.428V126.152H310.428H314.428V74.12H310.428ZM310.428 126.152V122.152H300.636V126.152V130.152H310.428V126.152Z" fill="black" mask="url(#path-2-outside-1_10_7)"/>
</g>
<g filter="url(#filter1_d_10_7)">
<mask id="path-4-outside-2_10_7" maskUnits="userSpaceOnUse" x="1" y="148" width="496" height="71" fill="black">
<rect fill="white" x="1" y="148" width="496" height="71"/>
<path d="M5.76 214.152V169.8H14.496V161.16H23.136V152.424H32.928V161.16H41.568V169.8H50.4V214.152H40.608V196.776H15.456V214.152H5.76ZM15.456 187.08H40.608V170.76H31.968V162.12H24.096V170.76H15.456V187.08ZM62.01 214.152V152.424H89.178V161.16H97.818V169.8H106.65V196.776H97.818V205.512H89.178V214.152H62.01ZM71.706 204.552H88.218V195.816H96.858V170.76H88.218V162.12H71.706V204.552ZM133.761 214.152V205.512H125.121V188.04H116.385V152.424H126.081V187.08H134.721V204.552H142.593V187.08H151.233V152.424H161.025V188.04H152.193V205.512H143.553V214.152H133.761ZM181.371 214.152V205.512H172.635V161.16H181.371V152.424H208.443V161.16H217.275V170.76H207.483V162.12H182.331V178.536H199.803V188.04H182.331V204.552H207.483V195.816H217.275V205.512H208.443V214.152H181.371ZM228.885 214.152V152.424H238.581V161.16H247.221V169.8H256.053V195.816H263.733V152.424H273.525V214.152H263.733V205.512H255.093V196.776H246.261V170.76H238.581V214.152H228.885ZM299.605 214.152V162.12H291.925V170.76H282.229V161.16H290.965V152.424H318.037V161.16H326.869V170.76H317.077V162.12H309.397V214.152H299.605ZM344.309 214.152V205.512H335.573V152.424H345.269V204.552H370.421V152.424H380.213V205.512H371.381V214.152H344.309ZM391.823 214.152V161.16H400.559V152.424H427.631V161.16H436.463V188.04H427.631V196.776H423.407V204.552H432.047V214.152H422.447V205.512H413.615V196.776H401.519V214.152H391.823ZM401.519 187.08H426.671V162.12H401.519V187.08ZM456.809 214.152V205.512H448.073V161.16H456.809V152.424H483.881V161.16H492.713V170.76H482.921V162.12H457.769V178.536H475.241V188.04H457.769V204.552H482.921V195.816H492.713V205.512H483.881V214.152H456.809Z"/>
</mask>
<path d="M5.76 214.152V169.8H14.496V161.16H23.136V152.424H32.928V161.16H41.568V169.8H50.4V214.152H40.608V196.776H15.456V214.152H5.76ZM15.456 187.08H40.608V170.76H31.968V162.12H24.096V170.76H15.456V187.08ZM62.01 214.152V152.424H89.178V161.16H97.818V169.8H106.65V196.776H97.818V205.512H89.178V214.152H62.01ZM71.706 204.552H88.218V195.816H96.858V170.76H88.218V162.12H71.706V204.552ZM133.761 214.152V205.512H125.121V188.04H116.385V152.424H126.081V187.08H134.721V204.552H142.593V187.08H151.233V152.424H161.025V188.04H152.193V205.512H143.553V214.152H133.761ZM181.371 214.152V205.512H172.635V161.16H181.371V152.424H208.443V161.16H217.275V170.76H207.483V162.12H182.331V178.536H199.803V188.04H182.331V204.552H207.483V195.816H217.275V205.512H208.443V214.152H181.371ZM228.885 214.152V152.424H238.581V161.16H247.221V169.8H256.053V195.816H263.733V152.424H273.525V214.152H263.733V205.512H255.093V196.776H246.261V170.76H238.581V214.152H228.885ZM299.605 214.152V162.12H291.925V170.76H282.229V161.16H290.965V152.424H318.037V161.16H326.869V170.76H317.077V162.12H309.397V214.152H299.605ZM344.309 214.152V205.512H335.573V152.424H345.269V204.552H370.421V152.424H380.213V205.512H371.381V214.152H344.309ZM391.823 214.152V161.16H400.559V152.424H427.631V161.16H436.463V188.04H427.631V196.776H423.407V204.552H432.047V214.152H422.447V205.512H413.615V196.776H401.519V214.152H391.823ZM401.519 187.08H426.671V162.12H401.519V187.08ZM456.809 214.152V205.512H448.073V161.16H456.809V152.424H483.881V161.16H492.713V170.76H482.921V162.12H457.769V178.536H475.241V188.04H457.769V204.552H482.921V195.816H492.713V205.512H483.881V214.152H456.809Z" fill="url(#paint1_linear_10_7)"/>
<path d="M5.76 214.152H1.76V218.152H5.76V214.152ZM5.76 169.8V165.8H1.76V169.8H5.76ZM14.496 169.8V173.8H18.496V169.8H14.496ZM14.496 161.16V157.16H10.496V161.16H14.496ZM23.136 161.16V165.16H27.136V161.16H23.136ZM23.136 152.424V148.424H19.136V152.424H23.136ZM32.928 152.424H36.928V148.424H32.928V152.424ZM32.928 161.16H28.928V165.16H32.928V161.16ZM41.568 161.16H45.568V157.16H41.568V161.16ZM41.568 169.8H37.568V173.8H41.568V169.8ZM50.4 169.8H54.4V165.8H50.4V169.8ZM50.4 214.152V218.152H54.4V214.152H50.4ZM40.608 214.152H36.608V218.152H40.608V214.152ZM40.608 196.776H44.608V192.776H40.608V196.776ZM15.456 196.776V192.776H11.456V196.776H15.456ZM15.456 214.152V218.152H19.456V214.152H15.456ZM15.456 187.08H11.456V191.08H15.456V187.08ZM40.608 187.08V191.08H44.608V187.08H40.608ZM40.608 170.76H44.608V166.76H40.608V170.76ZM31.968 170.76H27.968V174.76H31.968V170.76ZM31.968 162.12H35.968V158.12H31.968V162.12ZM24.096 162.12V158.12H20.096V162.12H24.096ZM24.096 170.76V174.76H28.096V170.76H24.096ZM15.456 170.76V166.76H11.456V170.76H15.456ZM5.76 214.152H9.76V169.8H5.76H1.76V214.152H5.76ZM5.76 169.8V173.8H14.496V169.8V165.8H5.76V169.8ZM14.496 169.8H18.496V161.16H14.496H10.496V169.8H14.496ZM14.496 161.16V165.16H23.136V161.16V157.16H14.496V161.16ZM23.136 161.16H27.136V152.424H23.136H19.136V161.16H23.136ZM23.136 152.424V156.424H32.928V152.424V148.424H23.136V152.424ZM32.928 152.424H28.928V161.16H32.928H36.928V152.424H32.928ZM32.928 161.16V165.16H41.568V161.16V157.16H32.928V161.16ZM41.568 161.16H37.568V169.8H41.568H45.568V161.16H41.568ZM41.568 169.8V173.8H50.4V169.8V165.8H41.568V169.8ZM50.4 169.8H46.4V214.152H50.4H54.4V169.8H50.4ZM50.4 214.152V210.152H40.608V214.152V218.152H50.4V214.152ZM40.608 214.152H44.608V196.776H40.608H36.608V214.152H40.608ZM40.608 196.776V192.776H15.456V196.776V200.776H40.608V196.776ZM15.456 196.776H11.456V214.152H15.456H19.456V196.776H15.456ZM15.456 214.152V210.152H5.76V214.152V218.152H15.456V214.152ZM15.456 187.08V191.08H40.608V187.08V183.08H15.456V187.08ZM40.608 187.08H44.608V170.76H40.608H36.608V187.08H40.608ZM40.608 170.76V166.76H31.968V170.76V174.76H40.608V170.76ZM31.968 170.76H35.968V162.12H31.968H27.968V170.76H31.968ZM31.968 162.12V158.12H24.096V162.12V166.12H31.968V162.12ZM24.096 162.12H20.096V170.76H24.096H28.096V162.12H24.096ZM24.096 170.76V166.76H15.456V170.76V174.76H24.096V170.76ZM15.456 170.76H11.456V187.08H15.456H19.456V170.76H15.456ZM62.01 214.152H58.01V218.152H62.01V214.152ZM62.01 152.424V148.424H58.01V152.424H62.01ZM89.178 152.424H93.178V148.424H89.178V152.424ZM89.178 161.16H85.178V165.16H89.178V161.16ZM97.818 161.16H101.818V157.16H97.818V161.16ZM97.818 169.8H93.818V173.8H97.818V169.8ZM106.65 169.8H110.65V165.8H106.65V169.8ZM106.65 196.776V200.776H110.65V196.776H106.65ZM97.818 196.776V192.776H93.818V196.776H97.818ZM97.818 205.512V209.512H101.818V205.512H97.818ZM89.178 205.512V201.512H85.178V205.512H89.178ZM89.178 214.152V218.152H93.178V214.152H89.178ZM71.706 204.552H67.706V208.552H71.706V204.552ZM88.218 204.552V208.552H92.218V204.552H88.218ZM88.218 195.816V191.816H84.218V195.816H88.218ZM96.858 195.816V199.816H100.858V195.816H96.858ZM96.858 170.76H100.858V166.76H96.858V170.76ZM88.218 170.76H84.218V174.76H88.218V170.76ZM88.218 162.12H92.218V158.12H88.218V162.12ZM71.706 162.12V158.12H67.706V162.12H71.706ZM62.01 214.152H66.01V152.424H62.01H58.01V214.152H62.01ZM62.01 152.424V156.424H89.178V152.424V148.424H62.01V152.424ZM89.178 152.424H85.178V161.16H89.178H93.178V152.424H89.178ZM89.178 161.16V165.16H97.818V161.16V157.16H89.178V161.16ZM97.818 161.16H93.818V169.8H97.818H101.818V161.16H97.818ZM97.818 169.8V173.8H106.65V169.8V165.8H97.818V169.8ZM106.65 169.8H102.65V196.776H106.65H110.65V169.8H106.65ZM106.65 196.776V192.776H97.818V196.776V200.776H106.65V196.776ZM97.818 196.776H93.818V205.512H97.818H101.818V196.776H97.818ZM97.818 205.512V201.512H89.178V205.512V209.512H97.818V205.512ZM89.178 205.512H85.178V214.152H89.178H93.178V205.512H89.178ZM89.178 214.152V210.152H62.01V214.152V218.152H89.178V214.152ZM71.706 204.552V208.552H88.218V204.552V200.552H71.706V204.552ZM88.218 204.552H92.218V195.816H88.218H84.218V204.552H88.218ZM88.218 195.816V199.816H96.858V195.816V191.816H88.218V195.816ZM96.858 195.816H100.858V170.76H96.858H92.858V195.816H96.858ZM96.858 170.76V166.76H88.218V170.76V174.76H96.858V170.76ZM88.218 170.76H92.218V162.12H88.218H84.218V170.76H88.218ZM88.218 162.12V158.12H71.706V162.12V166.12H88.218V162.12ZM71.706 162.12H67.706V204.552H71.706H75.706V162.12H71.706ZM133.761 214.152H129.761V218.152H133.761V214.152ZM133.761 205.512H137.761V201.512H133.761V205.512ZM125.121 205.512H121.121V209.512H125.121V205.512ZM125.121 188.04H129.121V184.04H125.121V188.04ZM116.385 188.04H112.385V192.04H116.385V188.04ZM116.385 152.424V148.424H112.385V152.424H116.385ZM126.081 152.424H130.081V148.424H126.081V152.424ZM126.081 187.08H122.081V191.08H126.081V187.08ZM134.721 187.08H138.721V183.08H134.721V187.08ZM134.721 204.552H130.721V208.552H134.721V204.552ZM142.593 204.552V208.552H146.593V204.552H142.593ZM142.593 187.08V183.08H138.593V187.08H142.593ZM151.233 187.08V191.08H155.233V187.08H151.233ZM151.233 152.424V148.424H147.233V152.424H151.233ZM161.025 152.424H165.025V148.424H161.025V152.424ZM161.025 188.04V192.04H165.025V188.04H161.025ZM152.193 188.04V184.04H148.193V188.04H152.193ZM152.193 205.512V209.512H156.193V205.512H152.193ZM143.553 205.512V201.512H139.553V205.512H143.553ZM143.553 214.152V218.152H147.553V214.152H143.553ZM133.761 214.152H137.761V205.512H133.761H129.761V214.152H133.761ZM133.761 205.512V201.512H125.121V205.512V209.512H133.761V205.512ZM125.121 205.512H129.121V188.04H125.121H121.121V205.512H125.121ZM125.121 188.04V184.04H116.385V188.04V192.04H125.121V188.04ZM116.385 188.04H120.385V152.424H116.385H112.385V188.04H116.385ZM116.385 152.424V156.424H126.081V152.424V148.424H116.385V152.424ZM126.081 152.424H122.081V187.08H126.081H130.081V152.424H126.081ZM126.081 187.08V191.08H134.721V187.08V183.08H126.081V187.08ZM134.721 187.08H130.721V204.552H134.721H138.721V187.08H134.721ZM134.721 204.552V208.552H142.593V204.552V200.552H134.721V204.552ZM142.593 204.552H146.593V187.08H142.593H138.593V204.552H142.593ZM142.593 187.08V191.08H151.233V187.08V183.08H142.593V187.08ZM151.233 187.08H155.233V152.424H151.233H147.233V187.08H151.233ZM151.233 152.424V156.424H161.025V152.424V148.424H151.233V152.424ZM161.025 152.424H157.025V188.04H161.025H165.025V152.424H161.025ZM161.025 188.04V184.04H152.193V188.04V192.04H161.025V188.04ZM152.193 188.04H148.193V205.512H152.193H156.193V188.04H152.193ZM152.193 205.512V201.512H143.553V205.512V209.512H152.193V205.512ZM143.553 205.512H139.553V214.152H143.553H147.553V205.512H143.553ZM143.553 214.152V210.152H133.761V214.152V218.152H143.553V214.152ZM181.371 214.152H177.371V218.152H181.371V214.152ZM181.371 205.512H185.371V201.512H181.371V205.512ZM172.635 205.512H168.635V209.512H172.635V205.512ZM172.635 161.16V157.16H168.635V161.16H172.635ZM181.371 161.16V165.16H185.371V161.16H181.371ZM181.371 152.424V148.424H177.371V152.424H181.371ZM208.443 152.424H212.443V148.424H208.443V152.424ZM208.443 161.16H204.443V165.16H208.443V161.16ZM217.275 161.16H221.275V157.16H217.275V161.16ZM217.275 170.76V174.76H221.275V170.76H217.275ZM207.483 170.76H203.483V174.76H207.483V170.76ZM207.483 162.12H211.483V158.12H207.483V162.12ZM182.331 162.12V158.12H178.331V162.12H182.331ZM182.331 178.536H178.331V182.536H182.331V178.536ZM199.803 178.536H203.803V174.536H199.803V178.536ZM199.803 188.04V192.04H203.803V188.04H199.803ZM182.331 188.04V184.04H178.331V188.04H182.331ZM182.331 204.552H178.331V208.552H182.331V204.552ZM207.483 204.552V208.552H211.483V204.552H207.483ZM207.483 195.816V191.816H203.483V195.816H207.483ZM217.275 195.816H221.275V191.816H217.275V195.816ZM217.275 205.512V209.512H221.275V205.512H217.275ZM208.443 205.512V201.512H204.443V205.512H208.443ZM208.443 214.152V218.152H212.443V214.152H208.443ZM181.371 214.152H185.371V205.512H181.371H177.371V214.152H181.371ZM181.371 205.512V201.512H172.635V205.512V209.512H181.371V205.512ZM172.635 205.512H176.635V161.16H172.635H168.635V205.512H172.635ZM172.635 161.16V165.16H181.371V161.16V157.16H172.635V161.16ZM181.371 161.16H185.371V152.424H181.371H177.371V161.16H181.371ZM181.371 152.424V156.424H208.443V152.424V148.424H181.371V152.424ZM208.443 152.424H204.443V161.16H208.443H212.443V152.424H208.443ZM208.443 161.16V165.16H217.275V161.16V157.16H208.443V161.16ZM217.275 161.16H213.275V170.76H217.275H221.275V161.16H217.275ZM217.275 170.76V166.76H207.483V170.76V174.76H217.275V170.76ZM207.483 170.76H211.483V162.12H207.483H203.483V170.76H207.483ZM207.483 162.12V158.12H182.331V162.12V166.12H207.483V162.12ZM182.331 162.12H178.331V178.536H182.331H186.331V162.12H182.331ZM182.331 178.536V182.536H199.803V178.536V174.536H182.331V178.536ZM199.803 178.536H195.803V188.04H199.803H203.803V178.536H199.803ZM199.803 188.04V184.04H182.331V188.04V192.04H199.803V188.04ZM182.331 188.04H178.331V204.552H182.331H186.331V188.04H182.331ZM182.331 204.552V208.552H207.483V204.552V200.552H182.331V204.552ZM207.483 204.552H211.483V195.816H207.483H203.483V204.552H207.483ZM207.483 195.816V199.816H217.275V195.816V191.816H207.483V195.816ZM217.275 195.816H213.275V205.512H217.275H221.275V195.816H217.275ZM217.275 205.512V201.512H208.443V205.512V209.512H217.275V205.512ZM208.443 205.512H204.443V214.152H208.443H212.443V205.512H208.443ZM208.443 214.152V210.152H181.371V214.152V218.152H208.443V214.152ZM228.885 214.152H224.885V218.152H228.885V214.152ZM228.885 152.424V148.424H224.885V152.424H228.885ZM238.581 152.424H242.581V148.424H238.581V152.424ZM238.581 161.16H234.581V165.16H238.581V161.16ZM247.221 161.16H251.221V157.16H247.221V161.16ZM247.221 169.8H243.221V173.8H247.221V169.8ZM256.053 169.8H260.053V165.8H256.053V169.8ZM256.053 195.816H252.053V199.816H256.053V195.816ZM263.733 195.816V199.816H267.733V195.816H263.733ZM263.733 152.424V148.424H259.733V152.424H263.733ZM273.525 152.424H277.525V148.424H273.525V152.424ZM273.525 214.152V218.152H277.525V214.152H273.525ZM263.733 214.152H259.733V218.152H263.733V214.152ZM263.733 205.512H267.733V201.512H263.733V205.512ZM255.093 205.512H251.093V209.512H255.093V205.512ZM255.093 196.776H259.093V192.776H255.093V196.776ZM246.261 196.776H242.261V200.776H246.261V196.776ZM246.261 170.76H250.261V166.76H246.261V170.76ZM238.581 170.76V166.76H234.581V170.76H238.581ZM238.581 214.152V218.152H242.581V214.152H238.581ZM228.885 214.152H232.885V152.424H228.885H224.885V214.152H228.885ZM228.885 152.424V156.424H238.581V152.424V148.424H228.885V152.424ZM238.581 152.424H234.581V161.16H238.581H242.581V152.424H238.581ZM238.581 161.16V165.16H247.221V161.16V157.16H238.581V161.16ZM247.221 161.16H243.221V169.8H247.221H251.221V161.16H247.221ZM247.221 169.8V173.8H256.053V169.8V165.8H247.221V169.8ZM256.053 169.8H252.053V195.816H256.053H260.053V169.8H256.053ZM256.053 195.816V199.816H263.733V195.816V191.816H256.053V195.816ZM263.733 195.816H267.733V152.424H263.733H259.733V195.816H263.733ZM263.733 152.424V156.424H273.525V152.424V148.424H263.733V152.424ZM273.525 152.424H269.525V214.152H273.525H277.525V152.424H273.525ZM273.525 214.152V210.152H263.733V214.152V218.152H273.525V214.152ZM263.733 214.152H267.733V205.512H263.733H259.733V214.152H263.733ZM263.733 205.512V201.512H255.093V205.512V209.512H263.733V205.512ZM255.093 205.512H259.093V196.776H255.093H251.093V205.512H255.093ZM255.093 196.776V192.776H246.261V196.776V200.776H255.093V196.776ZM246.261 196.776H250.261V170.76H246.261H242.261V196.776H246.261ZM246.261 170.76V166.76H238.581V170.76V174.76H246.261V170.76ZM238.581 170.76H234.581V214.152H238.581H242.581V170.76H238.581ZM238.581 214.152V210.152H228.885V214.152V218.152H238.581V214.152ZM299.605 214.152H295.605V218.152H299.605V214.152ZM299.605 162.12H303.605V158.12H299.605V162.12ZM291.925 162.12V158.12H287.925V162.12H291.925ZM291.925 170.76V174.76H295.925V170.76H291.925ZM282.229 170.76H278.229V174.76H282.229V170.76ZM282.229 161.16V157.16H278.229V161.16H282.229ZM290.965 161.16V165.16H294.965V161.16H290.965ZM290.965 152.424V148.424H286.965V152.424H290.965ZM318.037 152.424H322.037V148.424H318.037V152.424ZM318.037 161.16H314.037V165.16H318.037V161.16ZM326.869 161.16H330.869V157.16H326.869V161.16ZM326.869 170.76V174.76H330.869V170.76H326.869ZM317.077 170.76H313.077V174.76H317.077V170.76ZM317.077 162.12H321.077V158.12H317.077V162.12ZM309.397 162.12V158.12H305.397V162.12H309.397ZM309.397 214.152V218.152H313.397V214.152H309.397ZM299.605 214.152H303.605V162.12H299.605H295.605V214.152H299.605ZM299.605 162.12V158.12H291.925V162.12V166.12H299.605V162.12ZM291.925 162.12H287.925V170.76H291.925H295.925V162.12H291.925ZM291.925 170.76V166.76H282.229V170.76V174.76H291.925V170.76ZM282.229 170.76H286.229V161.16H282.229H278.229V170.76H282.229ZM282.229 161.16V165.16H290.965V161.16V157.16H282.229V161.16ZM290.965 161.16H294.965V152.424H290.965H286.965V161.16H290.965ZM290.965 152.424V156.424H318.037V152.424V148.424H290.965V152.424ZM318.037 152.424H314.037V161.16H318.037H322.037V152.424H318.037ZM318.037 161.16V165.16H326.869V161.16V157.16H318.037V161.16ZM326.869 161.16H322.869V170.76H326.869H330.869V161.16H326.869ZM326.869 170.76V166.76H317.077V170.76V174.76H326.869V170.76ZM317.077 170.76H321.077V162.12H317.077H313.077V170.76H317.077ZM317.077 162.12V158.12H309.397V162.12V166.12H317.077V162.12ZM309.397 162.12H305.397V214.152H309.397H313.397V162.12H309.397ZM309.397 214.152V210.152H299.605V214.152V218.152H309.397V214.152ZM344.309 214.152H340.309V218.152H344.309V214.152ZM344.309 205.512H348.309V201.512H344.309V205.512ZM335.573 205.512H331.573V209.512H335.573V205.512ZM335.573 152.424V148.424H331.573V152.424H335.573ZM345.269 152.424H349.269V148.424H345.269V152.424ZM345.269 204.552H341.269V208.552H345.269V204.552ZM370.421 204.552V208.552H374.421V204.552H370.421ZM370.421 152.424V148.424H366.421V152.424H370.421ZM380.213 152.424H384.213V148.424H380.213V152.424ZM380.213 205.512V209.512H384.213V205.512H380.213ZM371.381 205.512V201.512H367.381V205.512H371.381ZM371.381 214.152V218.152H375.381V214.152H371.381ZM344.309 214.152H348.309V205.512H344.309H340.309V214.152H344.309ZM344.309 205.512V201.512H335.573V205.512V209.512H344.309V205.512ZM335.573 205.512H339.573V152.424H335.573H331.573V205.512H335.573ZM335.573 152.424V156.424H345.269V152.424V148.424H335.573V152.424ZM345.269 152.424H341.269V204.552H345.269H349.269V152.424H345.269ZM345.269 204.552V208.552H370.421V204.552V200.552H345.269V204.552ZM370.421 204.552H374.421V152.424H370.421H366.421V204.552H370.421ZM370.421 152.424V156.424H380.213V152.424V148.424H370.421V152.424ZM380.213 152.424H376.213V205.512H380.213H384.213V152.424H380.213ZM380.213 205.512V201.512H371.381V205.512V209.512H380.213V205.512ZM371.381 205.512H367.381V214.152H371.381H375.381V205.512H371.381ZM371.381 214.152V210.152H344.309V214.152V218.152H371.381V214.152ZM391.823 214.152H387.823V218.152H391.823V214.152ZM391.823 161.16V157.16H387.823V161.16H391.823ZM400.559 161.16V165.16H404.559V161.16H400.559ZM400.559 152.424V148.424H396.559V152.424H400.559ZM427.631 152.424H431.631V148.424H427.631V152.424ZM427.631 161.16H423.631V165.16H427.631V161.16ZM436.463 161.16H440.463V157.16H436.463V161.16ZM436.463 188.04V192.04H440.463V188.04H436.463ZM427.631 188.04V184.04H423.631V188.04H427.631ZM427.631 196.776V200.776H431.631V196.776H427.631ZM423.407 196.776V192.776H419.407V196.776H423.407ZM423.407 204.552H419.407V208.552H423.407V204.552ZM432.047 204.552H436.047V200.552H432.047V204.552ZM432.047 214.152V218.152H436.047V214.152H432.047ZM422.447 214.152H418.447V218.152H422.447V214.152ZM422.447 205.512H426.447V201.512H422.447V205.512ZM413.615 205.512H409.615V209.512H413.615V205.512ZM413.615 196.776H417.615V192.776H413.615V196.776ZM401.519 196.776V192.776H397.519V196.776H401.519ZM401.519 214.152V218.152H405.519V214.152H401.519ZM401.519 187.08H397.519V191.08H401.519V187.08ZM426.671 187.08V191.08H430.671V187.08H426.671ZM426.671 162.12H430.671V158.12H426.671V162.12ZM401.519 162.12V158.12H397.519V162.12H401.519ZM391.823 214.152H395.823V161.16H391.823H387.823V214.152H391.823ZM391.823 161.16V165.16H400.559V161.16V157.16H391.823V161.16ZM400.559 161.16H404.559V152.424H400.559H396.559V161.16H400.559ZM400.559 152.424V156.424H427.631V152.424V148.424H400.559V152.424ZM427.631 152.424H423.631V161.16H427.631H431.631V152.424H427.631ZM427.631 161.16V165.16H436.463V161.16V157.16H427.631V161.16ZM436.463 161.16H432.463V188.04H436.463H440.463V161.16H436.463ZM436.463 188.04V184.04H427.631V188.04V192.04H436.463V188.04ZM427.631 188.04H423.631V196.776H427.631H431.631V188.04H427.631ZM427.631 196.776V192.776H423.407V196.776V200.776H427.631V196.776ZM423.407 196.776H419.407V204.552H423.407H427.407V196.776H423.407ZM423.407 204.552V208.552H432.047V204.552V200.552H423.407V204.552ZM432.047 204.552H428.047V214.152H432.047H436.047V204.552H432.047ZM432.047 214.152V210.152H422.447V214.152V218.152H432.047V214.152ZM422.447 214.152H426.447V205.512H422.447H418.447V214.152H422.447ZM422.447 205.512V201.512H413.615V205.512V209.512H422.447V205.512ZM413.615 205.512H417.615V196.776H413.615H409.615V205.512H413.615ZM413.615 196.776V192.776H401.519V196.776V200.776H413.615V196.776ZM401.519 196.776H397.519V214.152H401.519H405.519V196.776H401.519ZM401.519 214.152V210.152H391.823V214.152V218.152H401.519V214.152ZM401.519 187.08V191.08H426.671V187.08V183.08H401.519V187.08ZM426.671 187.08H430.671V162.12H426.671H422.671V187.08H426.671ZM426.671 162.12V158.12H401.519V162.12V166.12H426.671V162.12ZM401.519 162.12H397.519V187.08H401.519H405.519V162.12H401.519ZM456.809 214.152H452.809V218.152H456.809V214.152ZM456.809 205.512H460.809V201.512H456.809V205.512ZM448.073 205.512H444.073V209.512H448.073V205.512ZM448.073 161.16V157.16H444.073V161.16H448.073ZM456.809 161.16V165.16H460.809V161.16H456.809ZM456.809 152.424V148.424H452.809V152.424H456.809ZM483.881 152.424H487.881V148.424H483.881V152.424ZM483.881 161.16H479.881V165.16H483.881V161.16ZM492.713 161.16H496.713V157.16H492.713V161.16ZM492.713 170.76V174.76H496.713V170.76H492.713ZM482.921 170.76H478.921V174.76H482.921V170.76ZM482.921 162.12H486.921V158.12H482.921V162.12ZM457.769 162.12V158.12H453.769V162.12H457.769ZM457.769 178.536H453.769V182.536H457.769V178.536ZM475.241 178.536H479.241V174.536H475.241V178.536ZM475.241 188.04V192.04H479.241V188.04H475.241ZM457.769 188.04V184.04H453.769V188.04H457.769ZM457.769 204.552H453.769V208.552H457.769V204.552ZM482.921 204.552V208.552H486.921V204.552H482.921ZM482.921 195.816V191.816H478.921V195.816H482.921ZM492.713 195.816H496.713V191.816H492.713V195.816ZM492.713 205.512V209.512H496.713V205.512H492.713ZM483.881 205.512V201.512H479.881V205.512H483.881ZM483.881 214.152V218.152H487.881V214.152H483.881ZM456.809 214.152H460.809V205.512H456.809H452.809V214.152H456.809ZM456.809 205.512V201.512H448.073V205.512V209.512H456.809V205.512ZM448.073 205.512H452.073V161.16H448.073H444.073V205.512H448.073ZM448.073 161.16V165.16H456.809V161.16V157.16H448.073V161.16ZM456.809 161.16H460.809V152.424H456.809H452.809V161.16H456.809ZM456.809 152.424V156.424H483.881V152.424V148.424H456.809V152.424ZM483.881 152.424H479.881V161.16H483.881H487.881V152.424H483.881ZM483.881 161.16V165.16H492.713V161.16V157.16H483.881V161.16ZM492.713 161.16H488.713V170.76H492.713H496.713V161.16H492.713ZM492.713 170.76V166.76H482.921V170.76V174.76H492.713V170.76ZM482.921 170.76H486.921V162.12H482.921H478.921V170.76H482.921ZM482.921 162.12V158.12H457.769V162.12V166.12H482.921V162.12ZM457.769 162.12H453.769V178.536H457.769H461.769V162.12H457.769ZM457.769 178.536V182.536H475.241V178.536V174.536H457.769V178.536ZM475.241 178.536H471.241V188.04H475.241H479.241V178.536H475.241ZM475.241 188.04V184.04H457.769V188.04V192.04H475.241V188.04ZM457.769 188.04H453.769V204.552H457.769H461.769V188.04H457.769ZM457.769 204.552V208.552H482.921V204.552V200.552H457.769V204.552ZM482.921 204.552H486.921V195.816H482.921H478.921V204.552H482.921ZM482.921 195.816V199.816H492.713V195.816V191.816H482.921V195.816ZM492.713 195.816H488.713V205.512H492.713H496.713V195.816H492.713ZM492.713 205.512V201.512H483.881V205.512V209.512H492.713V205.512ZM483.881 205.512H479.881V214.152H483.881H487.881V205.512H483.881ZM483.881 214.152V210.152H456.809V214.152V218.152H483.881V214.152Z" fill="black" mask="url(#path-4-outside-2_10_7)"/>
</g>
<defs>
<filter id="filter0_d_10_7" x="166.76" y="60.424" width="165.14" height="76.728" filterUnits="userSpaceOnUse" color-interpolation-filters="sRGB">
<feFlood flood-opacity="0" result="BackgroundImageFix"/>
<feColorMatrix in="SourceAlpha" type="matrix" values="0 0 0 0 0 0 0 0 0 0 0 0 0 0 0 0 0 0 127 0" result="hardAlpha"/>
<feOffset dy="7"/>
<feComposite in2="hardAlpha" operator="out"/>
<feColorMatrix type="matrix" values="0 0 0 0 0 0 0 0 0 0 0 0 0 0 0 0 0 0 1 0"/>
<feBlend mode="normal" in2="BackgroundImageFix" result="effect1_dropShadow_10_7"/>
<feBlend mode="normal" in="SourceGraphic" in2="effect1_dropShadow_10_7" result="shape"/>
</filter>
<filter id="filter1_d_10_7" x="1.75999" y="148.424" width="494.953" height="76.728" filterUnits="userSpaceOnUse" color-interpolation-filters="sRGB">
<feFlood flood-opacity="0" result="BackgroundImageFix"/>
<feColorMatrix in="SourceAlpha" type="matrix" values="0 0 0 0 0 0 0 0 0 0 0 0 0 0 0 0 0 0 127 0" result="hardAlpha"/>
<feOffset dy="7"/>
<feComposite in2="hardAlpha" operator="out"/>
<feColorMatrix type="matrix" values="0 0 0 0 0 0 0 0 0 0 0 0 0 0 0 0 0 0 1 0"/>
<feBlend mode="normal" in2="BackgroundImageFix" result="effect1_dropShadow_10_7"/>
<feBlend mode="normal" in="SourceGraphic" in2="effect1_dropShadow_10_7" result="shape"/>
</filter>
<linearGradient id="paint0_linear_10_7" x1="249.5" y1="37" x2="249.5" y2="152" gradientUnits="userSpaceOnUse">
<stop offset="0.0001" stop-color="white"/>
<stop offset="0.5625" stop-color="#FD97F2"/>
<stop offset="1" stop-color="#FF00B3"/>
</linearGradient>
<linearGradient id="paint1_linear_10_7" x1="249.5" y1="125" x2="249.5" y2="240" gradientUnits="userSpaceOnUse">
<stop offset="0.0001" stop-color="white"/>
<stop offset="0.5625" stop-color="#FD97F2"/>
<stop offset="1" stop-color="#FF00B3"/>
</linearGradient>
</defs>
</svg>
