<svg width="318" height="101" viewBox="0 0 318 101" fill="none" xmlns="http://www.w3.org/2000/svg">
<g filter="url(#filter0_d_14_4)">
<rect x="1.5" y="0.5" width="316" height="97" rx="15.5" fill="black" stroke="black"/>
<g filter="url(#filter1_d_14_4)">
<mask id="path-2-outside-1_14_4" maskUnits="userSpaceOnUse" x="31" y="25" width="257" height="50" fill="black">
<rect fill="white" x="31" y="25" width="257" height="50"/>
<path d="M41.664 70.768V65.008H35.84V58.544H42.304V64.368H59.072V53.36H41.664V47.6H35.84V35.44H41.664V29.616H59.712V35.44H65.6V41.84H59.072V36.08H42.304V47.024H59.712V52.72H65.6V65.008H59.712V70.768H41.664ZM101.594 70.768V36.08H96.474V41.84H90.01V35.44H95.834V29.616H113.882V35.44H119.77V41.84H113.242V36.08H108.122V70.768H101.594ZM142.867 70.768V41.2H148.691V35.44H154.451V29.616H160.979V35.44H166.739V41.2H172.627V70.768H166.099V59.184H149.331V70.768H142.867ZM149.331 52.72H166.099V41.84H160.339V36.08H155.091V41.84H149.331V52.72ZM198.287 70.768V35.44H204.111V29.616H222.159V35.44H228.047V53.36H222.159V59.184H219.343V64.368H225.103V70.768H218.703V65.008H212.815V59.184H204.751V70.768H198.287ZM204.751 52.72H221.519V36.08H204.751V52.72ZM265.291 70.768V36.08H260.171V41.84H253.707V35.44H259.531V29.616H277.579V35.44H283.467V41.84H276.939V36.08H271.819V70.768H265.291Z"/>
</mask>
<path d="M41.664 70.768V65.008H35.84V58.544H42.304V64.368H59.072V53.36H41.664V47.6H35.84V35.44H41.664V29.616H59.712V35.44H65.6V41.84H59.072V36.08H42.304V47.024H59.712V52.72H65.6V65.008H59.712V70.768H41.664ZM101.594 70.768V36.08H96.474V41.84H90.01V35.44H95.834V29.616H113.882V35.44H119.77V41.84H113.242V36.08H108.122V70.768H101.594ZM142.867 70.768V41.2H148.691V35.44H154.451V29.616H160.979V35.44H166.739V41.2H172.627V70.768H166.099V59.184H149.331V70.768H142.867ZM149.331 52.72H166.099V41.84H160.339V36.08H155.091V41.84H149.331V52.72ZM198.287 70.768V35.44H204.111V29.616H222.159V35.44H228.047V53.36H222.159V59.184H219.343V64.368H225.103V70.768H218.703V65.008H212.815V59.184H204.751V70.768H198.287ZM204.751 52.72H221.519V36.08H204.751V52.72ZM265.291 70.768V36.08H260.171V41.84H253.707V35.44H259.531V29.616H277.579V35.44H283.467V41.84H276.939V36.08H271.819V70.768H265.291Z" fill="white"/>
<path d="M41.664 70.768H37.664V74.768H41.664V70.768ZM41.664 65.008H45.664V61.008H41.664V65.008ZM35.84 65.008H31.84V69.008H35.84V65.008ZM35.84 58.544V54.544H31.84V58.544H35.84ZM42.304 58.544H46.304V54.544H42.304V58.544ZM42.304 64.368H38.304V68.368H42.304V64.368ZM59.072 64.368V68.368H63.072V64.368H59.072ZM59.072 53.36H63.072V49.36H59.072V53.36ZM41.664 53.36H37.664V57.36H41.664V53.36ZM41.664 47.6H45.664V43.6H41.664V47.6ZM35.84 47.6H31.84V51.6H35.84V47.6ZM35.84 35.44V31.44H31.84V35.44H35.84ZM41.664 35.44V39.44H45.664V35.44H41.664ZM41.664 29.616V25.616H37.664V29.616H41.664ZM59.712 29.616H63.712V25.616H59.712V29.616ZM59.712 35.44H55.712V39.44H59.712V35.44ZM65.6 35.44H69.6V31.44H65.6V35.44ZM65.6 41.84V45.84H69.6V41.84H65.6ZM59.072 41.84H55.072V45.84H59.072V41.84ZM59.072 36.08H63.072V32.08H59.072V36.08ZM42.304 36.08V32.08H38.304V36.08H42.304ZM42.304 47.024H38.304V51.024H42.304V47.024ZM59.712 47.024H63.712V43.024H59.712V47.024ZM59.712 52.72H55.712V56.72H59.712V52.72ZM65.6 52.72H69.6V48.72H65.6V52.72ZM65.6 65.008V69.008H69.6V65.008H65.6ZM59.712 65.008V61.008H55.712V65.008H59.712ZM59.712 70.768V74.768H63.712V70.768H59.712ZM41.664 70.768H45.664V65.008H41.664H37.664V70.768H41.664ZM41.664 65.008V61.008H35.84V65.008V69.008H41.664V65.008ZM35.84 65.008H39.84V58.544H35.84H31.84V65.008H35.84ZM35.84 58.544V62.544H42.304V58.544V54.544H35.84V58.544ZM42.304 58.544H38.304V64.368H42.304H46.304V58.544H42.304ZM42.304 64.368V68.368H59.072V64.368V60.368H42.304V64.368ZM59.072 64.368H63.072V53.36H59.072H55.072V64.368H59.072ZM59.072 53.36V49.36H41.664V53.36V57.36H59.072V53.36ZM41.664 53.36H45.664V47.6H41.664H37.664V53.36H41.664ZM41.664 47.6V43.6H35.84V47.6V51.6H41.664V47.6ZM35.84 47.6H39.84V35.44H35.84H31.84V47.6H35.84ZM35.84 35.44V39.44H41.664V35.44V31.44H35.84V35.44ZM41.664 35.44H45.664V29.616H41.664H37.664V35.44H41.664ZM41.664 29.616V33.616H59.712V29.616V25.616H41.664V29.616ZM59.712 29.616H55.712V35.44H59.712H63.712V29.616H59.712ZM59.712 35.44V39.44H65.6V35.44V31.44H59.712V35.44ZM65.6 35.44H61.6V41.84H65.6H69.6V35.44H65.6ZM65.6 41.84V37.84H59.072V41.84V45.84H65.6V41.84ZM59.072 41.84H63.072V36.08H59.072H55.072V41.84H59.072ZM59.072 36.08V32.08H42.304V36.08V40.08H59.072V36.08ZM42.304 36.08H38.304V47.024H42.304H46.304V36.08H42.304ZM42.304 47.024V51.024H59.712V47.024V43.024H42.304V47.024ZM59.712 47.024H55.712V52.72H59.712H63.712V47.024H59.712ZM59.712 52.72V56.72H65.6V52.72V48.72H59.712V52.72ZM65.6 52.72H61.6V65.008H65.6H69.6V52.72H65.6ZM65.6 65.008V61.008H59.712V65.008V69.008H65.6V65.008ZM59.712 65.008H55.712V70.768H59.712H63.712V65.008H59.712ZM59.712 70.768V66.768H41.664V70.768V74.768H59.712V70.768ZM101.594 70.768H97.594V74.768H101.594V70.768ZM101.594 36.08H105.594V32.08H101.594V36.08ZM96.474 36.08V32.08H92.474V36.08H96.474ZM96.474 41.84V45.84H100.474V41.84H96.474ZM90.01 41.84H86.01V45.84H90.01V41.84ZM90.01 35.44V31.44H86.01V35.44H90.01ZM95.834 35.44V39.44H99.834V35.44H95.834ZM95.834 29.616V25.616H91.834V29.616H95.834ZM113.882 29.616H117.882V25.616H113.882V29.616ZM113.882 35.44H109.882V39.44H113.882V35.44ZM119.77 35.44H123.77V31.44H119.77V35.44ZM119.77 41.84V45.84H123.77V41.84H119.77ZM113.242 41.84H109.242V45.84H113.242V41.84ZM113.242 36.08H117.242V32.08H113.242V36.08ZM108.122 36.08V32.08H104.122V36.08H108.122ZM108.122 70.768V74.768H112.122V70.768H108.122ZM101.594 70.768H105.594V36.08H101.594H97.594V70.768H101.594ZM101.594 36.08V32.08H96.474V36.08V40.08H101.594V36.08ZM96.474 36.08H92.474V41.84H96.474H100.474V36.08H96.474ZM96.474 41.84V37.84H90.01V41.84V45.84H96.474V41.84ZM90.01 41.84H94.01V35.44H90.01H86.01V41.84H90.01ZM90.01 35.44V39.44H95.834V35.44V31.44H90.01V35.44ZM95.834 35.44H99.834V29.616H95.834H91.834V35.44H95.834ZM95.834 29.616V33.616H113.882V29.616V25.616H95.834V29.616ZM113.882 29.616H109.882V35.44H113.882H117.882V29.616H113.882ZM113.882 35.44V39.44H119.77V35.44V31.44H113.882V35.44ZM119.77 35.44H115.77V41.84H119.77H123.77V35.44H119.77ZM119.77 41.84V37.84H113.242V41.84V45.84H119.77V41.84ZM113.242 41.84H117.242V36.08H113.242H109.242V41.84H113.242ZM113.242 36.08V32.08H108.122V36.08V40.08H113.242V36.08ZM108.122 36.08H104.122V70.768H108.122H112.122V36.08H108.122ZM108.122 70.768V66.768H101.594V70.768V74.768H108.122V70.768ZM142.867 70.768H138.867V74.768H142.867V70.768ZM142.867 41.2V37.2H138.867V41.2H142.867ZM148.691 41.2V45.2H152.691V41.2H148.691ZM148.691 35.44V31.44H144.691V35.44H148.691ZM154.451 35.44V39.44H158.451V35.44H154.451ZM154.451 29.616V25.616H150.451V29.616H154.451ZM160.979 29.616H164.979V25.616H160.979V29.616ZM160.979 35.44H156.979V39.44H160.979V35.44ZM166.739 35.44H170.739V31.44H166.739V35.44ZM166.739 41.2H162.739V45.2H166.739V41.2ZM172.627 41.2H176.627V37.2H172.627V41.2ZM172.627 70.768V74.768H176.627V70.768H172.627ZM166.099 70.768H162.099V74.768H166.099V70.768ZM166.099 59.184H170.099V55.184H166.099V59.184ZM149.331 59.184V55.184H145.331V59.184H149.331ZM149.331 70.768V74.768H153.331V70.768H149.331ZM149.331 52.72H145.331V56.72H149.331V52.72ZM166.099 52.72V56.72H170.099V52.72H166.099ZM166.099 41.84H170.099V37.84H166.099V41.84ZM160.339 41.84H156.339V45.84H160.339V41.84ZM160.339 36.08H164.339V32.08H160.339V36.08ZM155.091 36.08V32.08H151.091V36.08H155.091ZM155.091 41.84V45.84H159.091V41.84H155.091ZM149.331 41.84V37.84H145.331V41.84H149.331ZM142.867 70.768H146.867V41.2H142.867H138.867V70.768H142.867ZM142.867 41.2V45.2H148.691V41.2V37.2H142.867V41.2ZM148.691 41.2H152.691V35.44H148.691H144.691V41.2H148.691ZM148.691 35.44V39.44H154.451V35.44V31.44H148.691V35.44ZM154.451 35.44H158.451V29.616H154.451H150.451V35.44H154.451ZM154.451 29.616V33.616H160.979V29.616V25.616H154.451V29.616ZM160.979 29.616H156.979V35.44H160.979H164.979V29.616H160.979ZM160.979 35.44V39.44H166.739V35.44V31.44H160.979V35.44ZM166.739 35.44H162.739V41.2H166.739H170.739V35.44H166.739ZM166.739 41.2V45.2H172.627V41.2V37.2H166.739V41.2ZM172.627 41.2H168.627V70.768H172.627H176.627V41.2H172.627ZM172.627 70.768V66.768H166.099V70.768V74.768H172.627V70.768ZM166.099 70.768H170.099V59.184H166.099H162.099V70.768H166.099ZM166.099 59.184V55.184H149.331V59.184V63.184H166.099V59.184ZM149.331 59.184H145.331V70.768H149.331H153.331V59.184H149.331ZM149.331 70.768V66.768H142.867V70.768V74.768H149.331V70.768ZM149.331 52.72V56.72H166.099V52.72V48.72H149.331V52.72ZM166.099 52.72H170.099V41.84H166.099H162.099V52.72H166.099ZM166.099 41.84V37.84H160.339V41.84V45.84H166.099V41.84ZM160.339 41.84H164.339V36.08H160.339H156.339V41.84H160.339ZM160.339 36.08V32.08H155.091V36.08V40.08H160.339V36.08ZM155.091 36.08H151.091V41.84H155.091H159.091V36.08H155.091ZM155.091 41.84V37.84H149.331V41.84V45.84H155.091V41.84ZM149.331 41.84H145.331V52.72H149.331H153.331V41.84H149.331ZM198.287 70.768H194.287V74.768H198.287V70.768ZM198.287 35.44V31.44H194.287V35.44H198.287ZM204.111 35.44V39.44H208.111V35.44H204.111ZM204.111 29.616V25.616H200.111V29.616H204.111ZM222.159 29.616H226.159V25.616H222.159V29.616ZM222.159 35.44H218.159V39.44H222.159V35.44ZM228.047 35.44H232.047V31.44H228.047V35.44ZM228.047 53.36V57.36H232.047V53.36H228.047ZM222.159 53.36V49.36H218.159V53.36H222.159ZM222.159 59.184V63.184H226.159V59.184H222.159ZM219.343 59.184V55.184H215.343V59.184H219.343ZM219.343 64.368H215.343V68.368H219.343V64.368ZM225.103 64.368H229.103V60.368H225.103V64.368ZM225.103 70.768V74.768H229.103V70.768H225.103ZM218.703 70.768H214.703V74.768H218.703V70.768ZM218.703 65.008H222.703V61.008H218.703V65.008ZM212.815 65.008H208.815V69.008H212.815V65.008ZM212.815 59.184H216.815V55.184H212.815V59.184ZM204.751 59.184V55.184H200.751V59.184H204.751ZM204.751 70.768V74.768H208.751V70.768H204.751ZM204.751 52.72H200.751V56.72H204.751V52.72ZM221.519 52.72V56.72H225.519V52.72H221.519ZM221.519 36.08H225.519V32.08H221.519V36.08ZM204.751 36.08V32.08H200.751V36.08H204.751ZM198.287 70.768H202.287V35.44H198.287H194.287V70.768H198.287ZM198.287 35.44V39.44H204.111V35.44V31.44H198.287V35.44ZM204.111 35.44H208.111V29.616H204.111H200.111V35.44H204.111ZM204.111 29.616V33.616H222.159V29.616V25.616H204.111V29.616ZM222.159 29.616H218.159V35.44H222.159H226.159V29.616H222.159ZM222.159 35.44V39.44H228.047V35.44V31.44H222.159V35.44ZM228.047 35.44H224.047V53.36H228.047H232.047V35.44H228.047ZM228.047 53.36V49.36H222.159V53.36V57.36H228.047V53.36ZM222.159 53.36H218.159V59.184H222.159H226.159V53.36H222.159ZM222.159 59.184V55.184H219.343V59.184V63.184H222.159V59.184ZM219.343 59.184H215.343V64.368H219.343H223.343V59.184H219.343ZM219.343 64.368V68.368H225.103V64.368V60.368H219.343V64.368ZM225.103 64.368H221.103V70.768H225.103H229.103V64.368H225.103ZM225.103 70.768V66.768H218.703V70.768V74.768H225.103V70.768ZM218.703 70.768H222.703V65.008H218.703H214.703V70.768H218.703ZM218.703 65.008V61.008H212.815V65.008V69.008H218.703V65.008ZM212.815 65.008H216.815V59.184H212.815H208.815V65.008H212.815ZM212.815 59.184V55.184H204.751V59.184V63.184H212.815V59.184ZM204.751 59.184H200.751V70.768H204.751H208.751V59.184H204.751ZM204.751 70.768V66.768H198.287V70.768V74.768H204.751V70.768ZM204.751 52.72V56.72H221.519V52.72V48.72H204.751V52.72ZM221.519 52.72H225.519V36.08H221.519H217.519V52.72H221.519ZM221.519 36.08V32.08H204.751V36.08V40.08H221.519V36.08ZM204.751 36.08H200.751V52.72H204.751H208.751V36.08H204.751ZM265.291 70.768H261.291V74.768H265.291V70.768ZM265.291 36.08H269.291V32.08H265.291V36.08ZM260.171 36.08V32.08H256.171V36.08H260.171ZM260.171 41.84V45.84H264.171V41.84H260.171ZM253.707 41.84H249.707V45.84H253.707V41.84ZM253.707 35.44V31.44H249.707V35.44H253.707ZM259.531 35.44V39.44H263.531V35.44H259.531ZM259.531 29.616V25.616H255.531V29.616H259.531ZM277.579 29.616H281.579V25.616H277.579V29.616ZM277.579 35.44H273.579V39.44H277.579V35.44ZM283.467 35.44H287.467V31.44H283.467V35.44ZM283.467 41.84V45.84H287.467V41.84H283.467ZM276.939 41.84H272.939V45.84H276.939V41.84ZM276.939 36.08H280.939V32.08H276.939V36.08ZM271.819 36.08V32.08H267.819V36.08H271.819ZM271.819 70.768V74.768H275.819V70.768H271.819ZM265.291 70.768H269.291V36.08H265.291H261.291V70.768H265.291ZM265.291 36.08V32.08H260.171V36.08V40.08H265.291V36.08ZM260.171 36.08H256.171V41.84H260.171H264.171V36.08H260.171ZM260.171 41.84V37.84H253.707V41.84V45.84H260.171V41.84ZM253.707 41.84H257.707V35.44H253.707H249.707V41.84H253.707ZM253.707 35.44V39.44H259.531V35.44V31.44H253.707V35.44ZM259.531 35.44H263.531V29.616H259.531H255.531V35.44H259.531ZM259.531 29.616V33.616H277.579V29.616V25.616H259.531V29.616ZM277.579 29.616H273.579V35.44H277.579H281.579V29.616H277.579ZM277.579 35.44V39.44H283.467V35.44V31.44H277.579V35.44ZM283.467 35.44H279.467V41.84H283.467H287.467V35.44H283.467ZM283.467 41.84V37.84H276.939V41.84V45.84H283.467V41.84ZM276.939 41.84H280.939V36.08H276.939H272.939V41.84H276.939ZM276.939 36.08V32.08H271.819V36.08V40.08H276.939V36.08ZM271.819 36.08H267.819V70.768H271.819H275.819V36.08H271.819ZM271.819 70.768V66.768H265.291V70.768V74.768H271.819V70.768Z" fill="black" mask="url(#path-2-outside-1_14_4)"/>
</g>
</g>
<defs>
<filter id="filter0_d_14_4" x="0" y="0" width="318" height="101" filterUnits="userSpaceOnUse" color-interpolation-filters="sRGB">
<feFlood flood-opacity="0" result="BackgroundImageFix"/>
<feColorMatrix in="SourceAlpha" type="matrix" values="0 0 0 0 0 0 0 0 0 0 0 0 0 0 0 0 0 0 127 0" result="hardAlpha"/>
<feOffset dx="-1" dy="3"/>
<feComposite in2="hardAlpha" operator="out"/>
<feColorMatrix type="matrix" values="0 0 0 0 1 0 0 0 0 1 0 0 0 0 1 0 0 0 1 0"/>
<feBlend mode="normal" in2="BackgroundImageFix" result="effect1_dropShadow_14_4"/>
<feBlend mode="normal" in="SourceGraphic" in2="effect1_dropShadow_14_4" result="shape"/>
</filter>
<filter id="filter1_d_14_4" x="27.84" y="25.616" width="259.628" height="54.152" filterUnits="userSpaceOnUse" color-interpolation-filters="sRGB">
<feFlood flood-opacity="0" result="BackgroundImageFix"/>
<feColorMatrix in="SourceAlpha" type="matrix" values="0 0 0 0 0 0 0 0 0 0 0 0 0 0 0 0 0 0 127 0" result="hardAlpha"/>
<feOffset dx="-4" dy="5"/>
<feComposite in2="hardAlpha" operator="out"/>
<feColorMatrix type="matrix" values="0 0 0 0 0 0 0 0 0 0 0 0 0 0 0 0 0 0 1 0"/>
<feBlend mode="normal" in2="BackgroundImageFix" result="effect1_dropShadow_14_4"/>
<feBlend mode="normal" in="SourceGraphic" in2="effect1_dropShadow_14_4" result="shape"/>
</filter>
</defs>
</svg>
